# xmcd CD database file
#
# Track frame offsets:
#       150
#       20322
#       45649
#       67091
#       110867
#       130934
#       143307
#       164026
#       201711
#       236613
#       256590
#       281286
#       303938
#       325544
#       344565
#       362777
#
# Disc length: 5021 seconds
#
# Revision: 1
# Processed by: cddbd v1.5.2PL0 Copyright (c) Steve Scherf et al.
# Submitted via: jack 3.1.1
#
DISCID=f1139b10
DTITLE=Peter Green's Fleetwood Mac - Transmission Impossible CD1
DYEAR=2019
DGENRE=Blues
TTITLE0=Madison Blues
TTITLE1=My Baby's Gone
TTITLE2=My Baby's Skinny
TTITLE3=Worried Dream
TTITLE4=I'll Dust My Broom
TTITLE5=Got To Move
TTITLE6=Trying So Hard To Forget
TTITLE7=Blues Jam
TTITLE8=Have You Ever Loved A Woman?
TTITLE9=Lazy Poker Blues
TTITLE10=I Loved Another Woman
TTITLE11=I'll Dust My Broom
TTITLE12=The Sun Is Shining
TTITLE13=Long Tall Sally
TTITLE14=Willie And The Hand Jive
TTITLE15=Tutti Frutti
EXTD=Live FM Broadcast from The Carousel Ballroom, San Francisco, California 9 Jun 1968
EXTT0=
EXTT1=
EXTT2=
EXTT3=
EXTT4=
EXTT5=
EXTT6=
EXTT7=
EXTT8=
EXTT9=
EXTT10=featuring Paul Butterfield
EXTT11=featuring Paul Butterfield
EXTT12=featuring Paul Butterfield
EXTT13=featuring Paul Butterfield
EXTT14=
EXTT15=
PLAYORDER=
